<svg width="199" height="344" viewBox="0 0 199 344" fill="none" xmlns="http://www.w3.org/2000/svg">
<rect width="199" height="344" fill="#E5E5E5"/>
<rect width="199" height="344" fill="#21AFA1"/>
<path d="M45.7637 163.703C45.9922 163.75 46.2236 163.782 46.458 163.8C46.6924 163.817 46.9297 163.826 47.1699 163.826C47.9434 163.826 48.5762 163.694 49.0684 163.431C49.5605 163.167 49.9473 162.804 50.2285 162.341C50.5098 161.878 50.7061 161.333 50.8174 160.706C50.9287 160.073 50.9902 159.391 51.002 158.658C51.5059 158.682 51.9805 158.717 52.4258 158.764C52.8711 158.805 53.2666 158.849 53.6123 158.896C54.0107 158.948 54.3828 159.004 54.7285 159.062V161.295C54.6406 161.266 54.5264 161.233 54.3857 161.198C54.251 161.163 54.0986 161.128 53.9287 161.093C53.7646 161.052 53.5859 161.014 53.3926 160.979C53.2051 160.938 53.0117 160.896 52.8125 160.855C52.7715 161.23 52.71 161.603 52.6279 161.972C52.5518 162.335 52.4434 162.684 52.3027 163.018C52.1621 163.352 51.9834 163.659 51.7666 163.94C51.5557 164.216 51.2949 164.453 50.9844 164.652C51.3945 164.787 51.7578 164.986 52.0742 165.25C52.3906 165.514 52.6631 165.818 52.8916 166.164C53.126 166.504 53.3193 166.876 53.4717 167.28C53.6299 167.685 53.7559 168.095 53.8496 168.511C53.9434 168.927 54.0107 169.343 54.0518 169.759C54.0928 170.169 54.1133 170.553 54.1133 170.91C54.1133 171.104 54.1074 171.291 54.0957 171.473C54.0898 171.648 54.0781 171.812 54.0605 171.965H51.9863C52.0156 171.754 52.0332 171.552 52.0391 171.358C52.0508 171.159 52.0566 170.963 52.0566 170.77C52.0566 170.008 51.9658 169.322 51.7842 168.713C51.6025 168.104 51.3477 167.588 51.0195 167.166C50.6914 166.738 50.2988 166.413 49.8418 166.19C49.3906 165.962 48.8926 165.848 48.3477 165.848C47.9785 165.848 47.665 165.856 47.4072 165.874C47.1494 165.892 46.9238 165.918 46.7305 165.953C46.5371 165.982 46.3643 166.018 46.2119 166.059C46.0654 166.1 45.916 166.141 45.7637 166.182V171.965H43.6016V160.926C43.2676 160.996 42.957 161.063 42.6699 161.128C42.3887 161.187 42.1777 161.242 42.0371 161.295V159.062C42.3711 159.004 42.7402 158.948 43.1445 158.896C43.4844 158.849 43.8799 158.805 44.3311 158.764C44.7822 158.717 45.2598 158.682 45.7637 158.658V163.703ZM61.4688 164.084C61.8516 164.084 62.2321 164.102 62.6104 164.139C62.9932 164.175 63.36 164.234 63.7109 164.316C64.0618 164.398 64.39 164.501 64.6953 164.624C65.0007 164.747 65.265 164.895 65.4883 165.068C65.7161 165.242 65.8939 165.442 66.0215 165.67C66.1491 165.893 66.2129 166.144 66.2129 166.422V169.963C66.2129 170.209 66.1491 170.435 66.0215 170.64C65.8939 170.845 65.7161 171.029 65.4883 171.193C65.265 171.353 65.0007 171.492 64.6953 171.61C64.39 171.729 64.0618 171.827 63.7109 171.904C63.36 171.982 62.9932 172.039 62.6104 172.075C62.2275 172.116 61.847 172.137 61.4688 172.137C61.0905 172.137 60.71 172.116 60.3271 172.075C59.9489 172.039 59.5843 171.982 59.2334 171.904C58.8825 171.827 58.5544 171.729 58.249 171.61C57.9482 171.492 57.6839 171.353 57.4561 171.193C57.2327 171.029 57.0573 170.847 56.9297 170.646C56.8021 170.441 56.7383 170.214 56.7383 169.963V166.422C56.7383 166.144 56.8021 165.893 56.9297 165.67C57.0573 165.442 57.2327 165.242 57.4561 165.068C57.6839 164.895 57.9482 164.747 58.249 164.624C58.5544 164.501 58.8825 164.398 59.2334 164.316C59.5843 164.234 59.9489 164.175 60.3271 164.139C60.71 164.102 61.0905 164.084 61.4688 164.084ZM58.4746 169.525C58.4746 169.735 58.5612 169.917 58.7344 170.072C58.9121 170.223 59.1423 170.35 59.4248 170.455C59.7074 170.555 60.0264 170.631 60.3818 170.681C60.7419 170.731 61.1042 170.756 61.4688 170.756C61.8516 170.756 62.2207 170.729 62.5762 170.674C62.9362 170.619 63.2552 170.542 63.5332 170.441C63.8112 170.337 64.0322 170.209 64.1963 170.059C64.3649 169.904 64.4492 169.726 64.4492 169.525V166.682C64.4492 166.486 64.3649 166.31 64.1963 166.155C64.0322 165.996 63.8112 165.864 63.5332 165.759C63.2552 165.649 62.9362 165.567 62.5762 165.513C62.2207 165.453 61.8516 165.424 61.4688 165.424C61.1042 165.424 60.7419 165.451 60.3818 165.506C60.0264 165.556 59.7074 165.633 59.4248 165.738C59.1423 165.843 58.9121 165.975 58.7344 166.135C58.5612 166.29 58.4746 166.472 58.4746 166.682V169.525ZM70.123 164.111H71.8594V165.26H70.123V172H68.4961V165.26H67.2109V164.111H68.4961V161.732H70.123V164.111ZM75.25 172H73.6914V161.732H75.25V172ZM79.7344 172H77.998V164.207H79.7344V172ZM78.873 161.5C79.2103 161.5 79.4769 161.557 79.6729 161.671C79.8688 161.78 79.9668 161.956 79.9668 162.197V162.539C79.9668 162.758 79.8688 162.915 79.6729 163.011C79.4769 163.106 79.2103 163.154 78.873 163.154C78.5495 163.154 78.2874 163.106 78.0869 163.011C77.891 162.915 77.793 162.758 77.793 162.539V162.197C77.793 161.956 77.891 161.78 78.0869 161.671C78.2874 161.557 78.5495 161.5 78.873 161.5ZM82.5781 166.354C82.5599 166.208 82.5166 166.085 82.4482 165.984C82.3844 165.884 82.3138 165.802 82.2363 165.738C82.1497 165.661 82.054 165.597 81.9492 165.547L82.7148 164.207C82.8835 164.266 83.0521 164.346 83.2207 164.446C83.362 164.533 83.5101 164.645 83.665 164.781C83.8245 164.913 83.9635 165.077 84.082 165.273C84.3099 165.128 84.5423 164.991 84.7793 164.863C85.0208 164.731 85.2715 164.617 85.5312 164.521C85.7956 164.426 86.0713 164.351 86.3584 164.296C86.6501 164.237 86.9622 164.207 87.2949 164.207C87.9967 164.207 88.5983 164.266 89.0996 164.385C89.6055 164.499 90.0179 164.672 90.3369 164.904C90.6605 165.132 90.8975 165.417 91.0479 165.759C91.1982 166.101 91.2734 166.499 91.2734 166.955V172H89.4824V167.379C89.4824 167.124 89.4482 166.905 89.3799 166.723C89.3115 166.536 89.2181 166.379 89.0996 166.251C88.9857 166.119 88.8512 166.012 88.6963 165.93C88.5413 165.848 88.3796 165.786 88.2109 165.745C88.0469 165.7 87.8783 165.67 87.7051 165.656C87.5319 165.638 87.3678 165.629 87.2129 165.629C86.9212 165.629 86.6432 165.649 86.3789 165.69C86.1146 165.731 85.8639 165.788 85.627 165.861C85.39 165.93 85.1667 166.012 84.957 166.107C84.7474 166.203 84.5514 166.303 84.3691 166.408V172H82.5781V166.354ZM109.387 155.248C109.293 155.307 109.193 155.342 109.088 155.354C108.982 155.365 108.871 155.383 108.754 155.406C108.648 155.418 108.549 155.441 108.455 155.477C108.361 155.512 108.291 155.576 108.244 155.67C108.127 155.553 107.998 155.453 107.857 155.371C107.717 155.289 107.576 155.201 107.436 155.107C107.318 155.143 107.201 155.189 107.084 155.248C106.967 155.307 106.85 155.336 106.732 155.336C106.65 155.336 106.568 155.307 106.486 155.248C106.393 155.318 106.281 155.377 106.152 155.424C106.035 155.459 105.906 155.494 105.766 155.529C105.637 155.564 105.514 155.611 105.396 155.67C105.291 155.729 105.215 155.816 105.168 155.934C105.145 155.875 105.086 155.857 104.992 155.881C104.91 155.904 104.863 155.875 104.852 155.793C104.477 155.922 104.096 156.033 103.709 156.127C103.322 156.221 102.936 156.32 102.549 156.426C102.162 156.531 101.781 156.648 101.406 156.777C101.031 156.906 100.668 157.064 100.316 157.252C100.305 157.264 100.299 157.281 100.299 157.305C100.299 157.422 100.316 157.533 100.352 157.639C100.387 157.744 100.416 157.844 100.439 157.938C100.229 158.652 100.088 159.379 100.018 160.117C99.9473 160.855 99.8535 161.582 99.7363 162.297V162.367C99.7363 162.426 99.7598 162.473 99.8066 162.508C99.8535 162.531 99.877 162.578 99.877 162.648L99.8594 162.684C99.8008 162.719 99.7598 162.771 99.7363 162.842C99.7129 162.9 99.7012 162.965 99.7012 163.035C99.7012 163.082 99.7129 163.152 99.7363 163.246C99.5371 163.914 99.4023 164.594 99.332 165.285C99.2734 165.977 99.1973 166.668 99.1035 167.359L98.9453 168.52C98.9219 168.59 98.8984 168.66 98.875 168.73C98.8633 168.789 98.8574 168.854 98.8574 168.924C98.8574 169.299 98.8809 169.668 98.9277 170.031C98.9863 170.383 99.0039 170.746 98.9805 171.121C99.0859 171.285 99.1387 171.443 99.1387 171.596C99.1387 171.654 99.1328 171.713 99.1211 171.771C99.1211 171.83 99.1152 171.889 99.1035 171.947C99.2559 172.1 99.4316 172.205 99.6309 172.264C99.8418 172.334 100.029 172.439 100.193 172.58V172.65C100.193 172.768 100.176 172.879 100.141 172.984C100.105 173.102 100.076 173.219 100.053 173.336C100.029 173.43 100 173.564 99.9648 173.74C99.9414 173.916 99.9062 174.033 99.8594 174.092C99.8008 174.174 99.7129 174.244 99.5957 174.303C99.4902 174.373 99.3848 174.408 99.2793 174.408C99.2441 174.408 99.1914 174.391 99.1211 174.355C99.0625 174.32 99.0156 174.291 98.9805 174.268C98.9219 174.268 98.8457 174.297 98.752 174.355C98.6582 174.414 98.5645 174.443 98.4707 174.443C98.4238 174.443 98.3828 174.438 98.3477 174.426C98.3125 174.426 98.2715 174.414 98.2246 174.391C98.1777 174.273 98.1074 174.168 98.0137 174.074C97.9316 173.992 97.832 173.91 97.7148 173.828C97.7266 173.664 97.6973 173.541 97.627 173.459C97.5566 173.377 97.4863 173.271 97.416 173.143C97.3926 172.979 97.3691 172.791 97.3457 172.58C97.334 172.369 97.2461 172.217 97.082 172.123C97.1406 172.041 97.1699 171.93 97.1699 171.789C97.1699 171.73 97.1582 171.666 97.1348 171.596C97.123 171.525 97.0879 171.473 97.0293 171.438V171.402C97.0176 171.344 97.0352 171.303 97.082 171.279C97.1406 171.244 97.1699 171.197 97.1699 171.139V171.068C97.0879 170.693 97.0469 170.301 97.0469 169.891C97.0469 169.504 97.0586 169.123 97.082 168.748C97.1055 168.361 97.1055 167.975 97.082 167.588C97.1523 167.529 97.2051 167.436 97.2402 167.307C97.2871 167.178 97.3223 167.037 97.3457 166.885C97.3691 166.732 97.3809 166.586 97.3809 166.445C97.3926 166.293 97.4043 166.17 97.416 166.076C97.4746 165.408 97.5684 164.752 97.6973 164.107C97.8262 163.451 97.9023 162.783 97.9258 162.104C97.9844 162.01 98.0195 161.887 98.0312 161.734C98.043 161.582 98.0488 161.424 98.0488 161.26C98.0488 161.084 98.0605 160.914 98.084 160.75C98.1074 160.586 98.1543 160.445 98.2246 160.328C98.2246 160 98.2539 159.672 98.3125 159.344C98.3711 159.004 98.4004 158.664 98.4004 158.324C98.4004 158.16 98.3828 157.99 98.3477 157.814C98.2305 157.768 98.125 157.744 98.0312 157.744C97.9023 157.744 97.7676 157.773 97.627 157.832C97.498 157.879 97.4043 157.955 97.3457 158.061C97.0879 158.072 96.8359 158.113 96.5898 158.184C96.3438 158.254 96.0977 158.289 95.8516 158.289H95.6758C95.6289 158.289 95.5762 158.283 95.5176 158.271C95.4355 158.307 95.3477 158.336 95.2539 158.359C95.1719 158.383 95.1367 158.453 95.1484 158.57C94.7852 158.605 94.4277 158.682 94.0762 158.799C93.7363 158.916 93.3965 159.045 93.0566 159.186C92.7168 159.314 92.377 159.438 92.0371 159.555C91.6855 159.672 91.3281 159.748 90.9648 159.783C90.8359 159.842 90.7539 159.965 90.7188 160.152C90.4609 160.129 90.2441 160.064 90.0684 159.959C89.8926 159.854 89.6875 159.754 89.4531 159.66C89.3828 159.414 89.3477 159.18 89.3477 158.957C89.3477 158.664 89.4062 158.383 89.5234 158.113C89.6406 157.844 89.8281 157.645 90.0859 157.516C90.1445 157.527 90.1973 157.539 90.2441 157.551C90.291 157.551 90.3438 157.551 90.4023 157.551C90.5898 157.551 90.7773 157.516 90.9648 157.445C91.1523 157.375 91.3457 157.34 91.5449 157.34C91.6035 157.34 91.668 157.357 91.7383 157.393C91.8203 157.346 91.9258 157.311 92.0547 157.287C92.1719 157.252 92.2832 157.223 92.3887 157.199C92.5059 157.164 92.6113 157.117 92.7051 157.059C92.7988 157 92.8574 156.918 92.8809 156.812C92.9395 156.859 93.0039 156.889 93.0742 156.9C93.1445 156.912 93.2148 156.918 93.2852 156.918C93.4375 156.918 93.5957 156.889 93.7598 156.83C93.9238 156.771 94.0527 156.678 94.1465 156.549C94.2285 156.643 94.3457 156.689 94.498 156.689C94.6621 156.689 94.8203 156.648 94.9727 156.566C95.1367 156.473 95.2949 156.426 95.4473 156.426C95.5645 156.426 95.6523 156.467 95.7109 156.549C95.8398 156.443 95.9922 156.361 96.168 156.303C96.3438 156.244 96.5195 156.191 96.6953 156.145C96.8828 156.098 97.0527 156.045 97.2051 155.986C97.3691 155.928 97.498 155.846 97.5918 155.74C97.6504 155.752 97.7441 155.758 97.873 155.758C98.0723 155.758 98.2598 155.734 98.4355 155.688C98.623 155.629 98.8105 155.576 98.998 155.529L99.3672 155.494C99.4609 155.482 99.543 155.453 99.6133 155.406C99.6953 155.359 99.7773 155.318 99.8594 155.283C99.9414 155.248 100.023 155.219 100.105 155.195C100.199 155.172 100.311 155.166 100.439 155.178C100.721 155.025 101.02 154.908 101.336 154.826C101.652 154.744 101.975 154.674 102.303 154.615C102.631 154.545 102.953 154.469 103.27 154.387C103.586 154.293 103.885 154.158 104.166 153.982H104.219C104.453 153.982 104.682 153.941 104.904 153.859C105.139 153.777 105.355 153.666 105.555 153.525C105.59 153.537 105.625 153.543 105.66 153.543H105.783C106.111 153.543 106.428 153.496 106.732 153.402C107.049 153.309 107.377 153.262 107.717 153.262C107.916 153.262 108.074 153.291 108.191 153.35C108.309 153.396 108.414 153.461 108.508 153.543C108.602 153.613 108.701 153.684 108.807 153.754C108.912 153.824 109.047 153.877 109.211 153.912C109.316 154.111 109.369 154.328 109.369 154.562C109.369 154.785 109.375 155.014 109.387 155.248ZM114.977 169.152C114.93 169.328 114.854 169.475 114.748 169.592C114.643 169.709 114.52 169.814 114.379 169.908C114.25 170.002 114.109 170.09 113.957 170.172C113.805 170.242 113.658 170.324 113.518 170.418H113.289C112.797 170.418 112.416 170.301 112.146 170.066C111.889 169.82 111.689 169.521 111.549 169.17C111.408 168.807 111.303 168.42 111.232 168.01C111.174 167.6 111.098 167.225 111.004 166.885C110.863 167.002 110.746 167.143 110.652 167.307C110.559 167.459 110.459 167.611 110.354 167.764C110.26 167.916 110.148 168.057 110.02 168.186C109.902 168.314 109.744 168.402 109.545 168.449C109.51 168.531 109.469 168.613 109.422 168.695C109.387 168.777 109.363 168.865 109.352 168.959C109.094 169.1 108.859 169.264 108.648 169.451C108.438 169.639 108.227 169.832 108.016 170.031C107.805 170.23 107.588 170.424 107.365 170.611C107.154 170.787 106.914 170.934 106.645 171.051C106.633 171.039 106.609 171.033 106.574 171.033C106.434 171.033 106.305 171.068 106.188 171.139C106.07 171.197 105.941 171.227 105.801 171.227C105.707 171.227 105.619 171.209 105.537 171.174C105.467 171.139 105.391 171.098 105.309 171.051C105.238 171.004 105.162 170.969 105.08 170.945C104.998 170.922 104.91 170.916 104.816 170.928C104.699 170.717 104.541 170.523 104.342 170.348C104.154 170.16 104.037 169.949 103.99 169.715C103.967 169.609 103.949 169.504 103.938 169.398C103.938 169.281 103.926 169.164 103.902 169.047C103.867 168.871 103.82 168.695 103.762 168.52C103.703 168.332 103.656 168.145 103.621 167.957C103.68 167.641 103.738 167.295 103.797 166.92C103.844 166.533 103.902 166.152 103.973 165.777C104.055 165.391 104.16 165.027 104.289 164.688C104.43 164.336 104.605 164.037 104.816 163.791L104.799 163.668C104.799 163.48 104.834 163.305 104.904 163.141C104.975 162.977 105.051 162.818 105.133 162.666C105.215 162.514 105.285 162.361 105.344 162.209C105.402 162.057 105.414 161.887 105.379 161.699C105.52 161.629 105.666 161.57 105.818 161.523C105.971 161.477 106.129 161.453 106.293 161.453C106.445 161.453 106.586 161.477 106.715 161.523C106.691 161.617 106.732 161.676 106.838 161.699V161.752C106.838 161.998 106.809 162.238 106.75 162.473C106.691 162.707 106.621 162.941 106.539 163.176C106.457 163.398 106.375 163.627 106.293 163.861C106.223 164.084 106.17 164.312 106.135 164.547C106.088 164.559 106.053 164.582 106.029 164.617C106.018 164.652 106.006 164.688 105.994 164.723C105.982 164.758 105.965 164.787 105.941 164.811C105.918 164.834 105.883 164.846 105.836 164.846C105.766 165.256 105.689 165.666 105.607 166.076C105.537 166.475 105.502 166.879 105.502 167.289C105.502 167.535 105.525 167.787 105.572 168.045C105.619 168.303 105.707 168.549 105.836 168.783L105.906 168.766C106.035 168.766 106.135 168.795 106.205 168.854C106.287 168.912 106.393 168.971 106.521 169.029C106.615 169.006 106.703 168.977 106.785 168.941C106.867 168.895 106.902 168.818 106.891 168.713C107.043 168.701 107.172 168.666 107.277 168.607C107.383 168.537 107.477 168.461 107.559 168.379L107.822 168.133C107.916 168.051 108.027 167.992 108.156 167.957C108.156 167.887 108.174 167.834 108.209 167.799L108.314 167.693C108.35 167.658 108.373 167.623 108.385 167.588C108.408 167.541 108.414 167.477 108.402 167.395C108.543 167.383 108.648 167.348 108.719 167.289C108.801 167.23 108.871 167.166 108.93 167.096C109 167.014 109.064 166.932 109.123 166.85C109.182 166.768 109.258 166.697 109.352 166.639C109.434 166.463 109.545 166.229 109.686 165.936C109.838 165.643 109.984 165.338 110.125 165.021C110.277 164.705 110.406 164.406 110.512 164.125C110.629 163.832 110.688 163.609 110.688 163.457C110.688 163.398 110.67 163.346 110.635 163.299C110.611 163.252 110.605 163.199 110.617 163.141V163.088C110.711 162.971 110.793 162.842 110.863 162.701C110.945 162.561 111.027 162.426 111.109 162.297C111.203 162.168 111.303 162.051 111.408 161.945C111.514 161.84 111.648 161.758 111.812 161.699C112 161.758 112.188 161.799 112.375 161.822C112.574 161.846 112.762 161.893 112.938 161.963C112.949 162.256 112.979 162.596 113.025 162.982C113.072 163.369 113.154 163.697 113.271 163.967C113.271 164.119 113.266 164.266 113.254 164.406C113.254 164.547 113.254 164.688 113.254 164.828C113.254 165.062 113.26 165.303 113.271 165.549C113.295 165.795 113.336 166.023 113.395 166.234C113.312 166.41 113.271 166.598 113.271 166.797C113.271 167.066 113.312 167.324 113.395 167.57C113.477 167.805 113.535 168.057 113.57 168.326C113.723 168.537 113.922 168.643 114.168 168.643C114.227 168.643 114.273 168.637 114.309 168.625C114.355 168.613 114.402 168.596 114.449 168.572C114.543 168.678 114.625 168.783 114.695 168.889C114.777 168.982 114.871 169.07 114.977 169.152ZM130.691 160.697C130.645 160.85 130.568 160.99 130.463 161.119L130.164 161.488C130.07 161.605 129.988 161.734 129.918 161.875C129.859 162.004 129.842 162.156 129.865 162.332C129.842 162.332 129.812 162.332 129.777 162.332C129.742 162.32 129.713 162.314 129.689 162.314C129.502 162.314 129.355 162.361 129.25 162.455C129.156 162.537 129.027 162.607 128.863 162.666C128.84 162.596 128.811 162.531 128.775 162.473C128.74 162.402 128.688 162.355 128.617 162.332C128.336 162.391 128.055 162.438 127.773 162.473C127.492 162.496 127.211 162.531 126.93 162.578C126.801 162.602 126.672 162.637 126.543 162.684C126.414 162.719 126.279 162.754 126.139 162.789C126.068 162.812 125.992 162.824 125.91 162.824C125.828 162.812 125.746 162.812 125.664 162.824C125.383 162.836 125.078 162.859 124.75 162.895C124.422 162.918 124.129 163.006 123.871 163.158C123.754 163.135 123.631 163.117 123.502 163.105C123.373 163.094 123.244 163.088 123.115 163.088C122.834 163.088 122.523 163.117 122.184 163.176C121.855 163.223 121.562 163.322 121.305 163.475C121.246 163.451 121.182 163.434 121.111 163.422C121.053 163.41 120.982 163.404 120.9 163.404C120.877 163.404 120.859 163.41 120.848 163.422C120.836 163.422 120.818 163.422 120.795 163.422C120.783 163.527 120.795 163.633 120.83 163.738C120.877 163.832 120.953 163.908 121.059 163.967C121.012 164.096 120.988 164.236 120.988 164.389C120.988 164.588 121 164.787 121.023 164.986C121.059 165.186 121.076 165.385 121.076 165.584C121.076 165.807 121.047 165.982 120.988 166.111C121.105 166.463 121.164 166.838 121.164 167.236C121.164 167.377 121.152 167.518 121.129 167.658C121.117 167.787 121.111 167.928 121.111 168.08C121.111 168.209 121.158 168.314 121.252 168.396C121.346 168.467 121.393 168.566 121.393 168.695C121.393 168.742 121.381 168.789 121.357 168.836C121.521 168.801 121.68 168.754 121.832 168.695C121.984 168.625 122.143 168.59 122.307 168.59C122.4 168.59 122.488 168.607 122.57 168.643C122.664 168.678 122.746 168.725 122.816 168.783C122.805 168.842 122.793 168.906 122.781 168.977C122.781 169.047 122.781 169.117 122.781 169.188C122.781 169.316 122.781 169.439 122.781 169.557C122.793 169.662 122.805 169.779 122.816 169.908C122.723 170.072 122.611 170.219 122.482 170.348C122.365 170.477 122.283 170.641 122.236 170.84C122.061 170.84 121.902 170.881 121.762 170.963C121.633 171.033 121.51 171.115 121.393 171.209C121.275 171.291 121.158 171.373 121.041 171.455C120.924 171.525 120.795 171.561 120.654 171.561C120.479 171.561 120.355 171.537 120.285 171.49C120.215 171.432 120.162 171.373 120.127 171.314C120.092 171.256 120.057 171.203 120.021 171.156C119.998 171.109 119.939 171.092 119.846 171.104C119.822 170.951 119.775 170.811 119.705 170.682C119.635 170.541 119.559 170.406 119.477 170.277C119.406 170.148 119.33 170.02 119.248 169.891C119.178 169.75 119.125 169.609 119.09 169.469C119.02 169.164 118.99 168.848 119.002 168.52C119.014 168.191 118.961 167.875 118.844 167.57C118.867 167.406 118.885 167.242 118.896 167.078C118.908 166.902 118.914 166.732 118.914 166.568C118.914 166.24 118.902 165.918 118.879 165.602C118.867 165.273 118.855 164.939 118.844 164.6C118.762 164.494 118.709 164.377 118.686 164.248C118.674 164.107 118.662 163.973 118.65 163.844C118.615 163.809 118.574 163.773 118.527 163.738C118.492 163.703 118.469 163.656 118.457 163.598C118.363 163.574 118.293 163.562 118.246 163.562C118.082 163.562 117.941 163.604 117.824 163.686C117.719 163.756 117.619 163.791 117.525 163.791C117.432 163.791 117.344 163.779 117.262 163.756C117.18 163.732 117.098 163.721 117.016 163.721C116.945 163.721 116.904 163.738 116.893 163.773C116.893 163.797 116.869 163.82 116.822 163.844C116.787 163.867 116.705 163.891 116.576 163.914C116.447 163.938 116.301 163.961 116.137 163.984C115.984 163.996 115.832 164.008 115.68 164.02C115.539 164.031 115.445 164.037 115.398 164.037C115.211 164.037 115.07 164.002 114.977 163.932C114.871 163.85 114.748 163.762 114.607 163.668C114.631 163.598 114.643 163.551 114.643 163.527C114.643 163.41 114.607 163.316 114.537 163.246C114.467 163.164 114.432 163.094 114.432 163.035C114.432 162.906 114.484 162.807 114.59 162.736C114.684 162.666 114.736 162.555 114.748 162.402C115.018 162.285 115.293 162.197 115.574 162.139C115.855 162.08 116.143 162.033 116.436 161.998C116.729 161.963 117.016 161.922 117.297 161.875C117.59 161.828 117.877 161.752 118.158 161.646C118.24 161.658 118.316 161.67 118.387 161.682C118.469 161.682 118.551 161.682 118.633 161.682C118.984 161.682 119.33 161.646 119.67 161.576C120.021 161.494 120.379 161.453 120.742 161.453C120.836 161.453 120.93 161.459 121.023 161.471C121.117 161.482 121.211 161.5 121.305 161.523C121.773 161.453 122.236 161.377 122.693 161.295C123.162 161.213 123.643 161.143 124.135 161.084C124.369 161.061 124.598 161.043 124.82 161.031C125.055 161.008 125.289 160.979 125.523 160.943C125.605 160.932 125.664 160.914 125.699 160.891C125.746 160.855 125.77 160.791 125.77 160.697C125.875 160.744 125.992 160.768 126.121 160.768C126.32 160.768 126.514 160.732 126.701 160.662C126.889 160.592 127.082 160.557 127.281 160.557C127.328 160.557 127.369 160.562 127.404 160.574C127.439 160.574 127.475 160.574 127.51 160.574C127.592 160.574 127.633 160.539 127.633 160.469C127.645 160.387 127.703 160.334 127.809 160.311C127.891 160.287 128.008 160.27 128.16 160.258C128.312 160.246 128.471 160.234 128.635 160.223C128.811 160.199 128.969 160.176 129.109 160.152C129.262 160.117 129.373 160.07 129.443 160.012L129.566 159.818C129.777 159.83 129.93 159.924 130.023 160.1C130.129 160.264 130.188 160.445 130.199 160.645C130.246 160.691 130.311 160.715 130.393 160.715C130.486 160.703 130.568 160.697 130.639 160.697H130.691ZM139.357 161.822C139.287 161.928 139.246 162.045 139.234 162.174C139.223 162.303 139.217 162.42 139.217 162.525C139.217 162.666 139.217 162.807 139.217 162.947C139.229 163.076 139.234 163.205 139.234 163.334V163.598C139.211 163.68 139.176 163.762 139.129 163.844C139.082 163.926 139.047 164.008 139.023 164.09C138.859 164.523 138.777 164.957 138.777 165.391V165.426C138.719 165.566 138.66 165.695 138.602 165.812C138.555 165.93 138.508 166.047 138.461 166.164C138.414 166.27 138.379 166.387 138.355 166.516C138.332 166.633 138.326 166.773 138.338 166.938C138.174 167.348 137.957 167.723 137.688 168.062C137.418 168.391 137.154 168.73 136.896 169.082C136.65 169.176 136.422 169.299 136.211 169.451C136.012 169.604 135.818 169.773 135.631 169.961C135.268 170.078 134.91 170.213 134.559 170.365C134.207 170.518 133.891 170.723 133.609 170.98C133.387 171.004 133.164 171.039 132.941 171.086C132.719 171.133 132.502 171.203 132.291 171.297H132.08C131.975 171.297 131.898 171.273 131.852 171.227C131.699 171.309 131.541 171.367 131.377 171.402C131.213 171.426 131.049 171.438 130.885 171.438C130.674 171.438 130.463 171.426 130.252 171.402C130.053 171.367 129.848 171.332 129.637 171.297C129.52 171.133 129.355 171.01 129.145 170.928C128.934 170.834 128.746 170.746 128.582 170.664C128.242 170.195 127.996 169.744 127.844 169.311C127.691 168.865 127.533 168.367 127.369 167.816C127.393 167.652 127.434 167.494 127.492 167.342C127.551 167.178 127.574 167.002 127.562 166.814C127.773 166.205 128.049 165.654 128.389 165.162C128.74 164.658 129.139 164.178 129.584 163.721C129.584 163.65 129.596 163.592 129.619 163.545C129.654 163.498 129.66 163.428 129.637 163.334C129.648 163.346 129.672 163.352 129.707 163.352C129.801 163.352 129.859 163.328 129.883 163.281C129.906 163.223 129.912 163.158 129.9 163.088C130.322 162.818 130.703 162.508 131.043 162.156C131.395 161.805 131.793 161.512 132.238 161.277C132.273 161.172 132.332 161.084 132.414 161.014C132.496 160.943 132.561 160.861 132.607 160.768C132.982 160.662 133.322 160.504 133.627 160.293C133.932 160.082 134.254 159.895 134.594 159.73C134.781 159.625 134.957 159.555 135.121 159.52C135.297 159.473 135.484 159.426 135.684 159.379C135.754 159.355 135.818 159.338 135.877 159.326C135.936 159.314 136 159.309 136.07 159.309C136.281 159.309 136.486 159.35 136.686 159.432C136.885 159.502 137.09 159.537 137.301 159.537C137.359 159.537 137.406 159.537 137.441 159.537C137.488 159.525 137.535 159.514 137.582 159.502C137.781 159.748 138.033 159.936 138.338 160.064C138.408 160.24 138.49 160.393 138.584 160.521C138.689 160.65 138.795 160.779 138.9 160.908C139.006 161.025 139.1 161.16 139.182 161.312C139.275 161.453 139.334 161.623 139.357 161.822ZM137.6 162.736C137.6 162.678 137.594 162.625 137.582 162.578C137.465 162.543 137.354 162.496 137.248 162.438C137.143 162.379 137.025 162.35 136.896 162.35C136.814 162.35 136.732 162.367 136.65 162.402C136.639 162.32 136.604 162.262 136.545 162.227C136.498 162.191 136.439 162.162 136.369 162.139C136.311 162.104 136.246 162.08 136.176 162.068C136.117 162.045 136.064 162.01 136.018 161.963C135.982 161.869 135.941 161.775 135.895 161.682C135.859 161.576 135.789 161.5 135.684 161.453C135.578 161.559 135.455 161.646 135.314 161.717C135.174 161.775 135.027 161.834 134.875 161.893C134.734 161.951 134.594 162.021 134.453 162.104C134.324 162.186 134.213 162.285 134.119 162.402H133.803C133.732 162.531 133.633 162.631 133.504 162.701C133.375 162.76 133.264 162.848 133.17 162.965C132.982 163.059 132.807 163.176 132.643 163.316C132.49 163.445 132.338 163.586 132.186 163.738C132.033 163.879 131.881 164.025 131.729 164.178C131.588 164.33 131.436 164.471 131.271 164.6C131.119 164.928 130.949 165.215 130.762 165.461C130.586 165.695 130.416 165.936 130.252 166.182C130.1 166.428 129.965 166.697 129.848 166.99C129.742 167.271 129.689 167.623 129.689 168.045V168.221C129.689 168.279 129.695 168.338 129.707 168.396C129.859 168.561 129.982 168.736 130.076 168.924C130.182 169.111 130.352 169.246 130.586 169.328C130.82 169.422 131.066 169.463 131.324 169.451C131.594 169.439 131.852 169.469 132.098 169.539C132.66 169.434 133.199 169.264 133.715 169.029C134.242 168.783 134.74 168.49 135.209 168.15C135.279 168.092 135.361 168.033 135.455 167.975C135.549 167.904 135.625 167.834 135.684 167.764C135.742 167.705 135.789 167.641 135.824 167.57C135.871 167.5 135.918 167.436 135.965 167.377C136.059 167.225 136.164 167.072 136.281 166.92C136.398 166.768 136.521 166.627 136.65 166.498C136.709 166.24 136.785 165.994 136.879 165.76C136.973 165.514 137.066 165.273 137.16 165.039C137.254 164.805 137.33 164.564 137.389 164.318C137.459 164.072 137.494 163.814 137.494 163.545C137.494 163.486 137.488 163.422 137.477 163.352C137.477 163.281 137.471 163.217 137.459 163.158C137.553 163.029 137.6 162.889 137.6 162.736ZM163.053 168.941C163.029 169.117 162.965 169.252 162.859 169.346C162.766 169.439 162.654 169.527 162.525 169.609C162.467 169.598 162.408 169.592 162.35 169.592C162.303 169.58 162.25 169.574 162.191 169.574C161.828 169.562 161.482 169.609 161.154 169.715C160.838 169.82 160.51 169.896 160.17 169.943C160.053 169.967 159.941 169.979 159.836 169.979C159.742 169.967 159.643 169.973 159.537 169.996C159.162 170.055 158.764 170.102 158.342 170.137C157.92 170.172 157.498 170.219 157.076 170.277C156.654 170.324 156.238 170.389 155.828 170.471C155.43 170.541 155.055 170.646 154.703 170.787C154.668 170.764 154.633 170.74 154.598 170.717C154.562 170.682 154.521 170.664 154.475 170.664C154.357 170.664 154.246 170.682 154.141 170.717C154.035 170.752 153.93 170.764 153.824 170.752C153.707 170.822 153.578 170.875 153.438 170.91C153.309 170.934 153.174 170.957 153.033 170.98C152.904 170.992 152.775 171.016 152.646 171.051C152.518 171.086 152.395 171.15 152.277 171.244C152.184 171.197 152.066 171.174 151.926 171.174C151.797 171.162 151.709 171.115 151.662 171.033C151.393 171.162 151.105 171.244 150.801 171.279C150.508 171.314 150.209 171.326 149.904 171.314C149.705 171.303 149.477 171.273 149.219 171.227C148.961 171.18 148.703 171.115 148.445 171.033C148.188 170.939 147.947 170.834 147.725 170.717C147.502 170.588 147.332 170.436 147.215 170.26C147.133 170.143 147.074 170.014 147.039 169.873C147.004 169.732 146.922 169.627 146.793 169.557C146.828 169.287 146.869 169.023 146.916 168.766C146.963 168.508 147.01 168.244 147.057 167.975C147.291 167.775 147.514 167.564 147.725 167.342C147.936 167.119 148.135 166.885 148.322 166.639C148.545 166.533 148.75 166.404 148.938 166.252C149.137 166.1 149.33 165.947 149.518 165.795C149.717 165.631 149.91 165.473 150.098 165.32C150.297 165.168 150.508 165.033 150.73 164.916C150.766 164.834 150.812 164.77 150.871 164.723C150.941 164.664 151.012 164.611 151.082 164.564C151.152 164.506 151.217 164.447 151.275 164.389C151.334 164.318 151.375 164.236 151.398 164.143C151.809 163.896 152.166 163.586 152.471 163.211C152.775 162.836 152.975 162.414 153.068 161.945C152.869 161.781 152.641 161.676 152.383 161.629C152.137 161.57 151.879 161.529 151.609 161.506C151.375 161.494 151.129 161.494 150.871 161.506C150.625 161.518 150.373 161.512 150.115 161.488C149.857 161.57 149.588 161.623 149.307 161.646C149.037 161.67 148.768 161.693 148.498 161.717C148.229 161.729 147.959 161.764 147.689 161.822C147.432 161.869 147.18 161.963 146.934 162.104C146.887 162.104 146.84 162.098 146.793 162.086C146.758 162.074 146.717 162.068 146.67 162.068C146.295 162.057 145.943 162.133 145.615 162.297C145.287 162.449 144.965 162.602 144.648 162.754C144.625 162.801 144.613 162.836 144.613 162.859C144.613 162.93 144.625 163 144.648 163.07C144.684 163.129 144.701 163.193 144.701 163.264C144.689 163.275 144.684 163.287 144.684 163.299C144.684 163.311 144.678 163.322 144.666 163.334C144.654 163.393 144.637 163.445 144.613 163.492C144.602 163.539 144.584 163.592 144.561 163.65C144.432 164.025 144.361 164.395 144.35 164.758C144.338 165.062 144.338 165.361 144.35 165.654C144.361 165.947 144.361 166.246 144.35 166.551C144.326 166.926 144.268 167.277 144.174 167.605C144.232 167.887 144.285 168.186 144.332 168.502C144.379 168.807 144.438 169.111 144.508 169.416C144.578 169.721 144.66 170.02 144.754 170.312C144.859 170.594 144.994 170.863 145.158 171.121C145.146 171.145 145.152 171.162 145.176 171.174C145.199 171.186 145.223 171.191 145.246 171.191H145.387C145.445 171.191 145.469 171.215 145.457 171.262C145.48 171.297 145.498 171.332 145.51 171.367C145.521 171.391 145.545 171.414 145.58 171.438C145.604 171.473 145.604 171.52 145.58 171.578C145.568 171.812 145.51 172.029 145.404 172.229C145.299 172.428 145.234 172.645 145.211 172.879C145.07 172.914 144.941 172.932 144.824 172.932C144.625 172.92 144.449 172.861 144.297 172.756C144.145 172.662 144.004 172.545 143.875 172.404C143.746 172.264 143.623 172.123 143.506 171.982C143.389 171.83 143.26 171.701 143.119 171.596C143.037 171.268 142.955 170.904 142.873 170.506C142.803 170.107 142.68 169.768 142.504 169.486C142.551 169.381 142.574 169.252 142.574 169.1C142.586 168.865 142.562 168.637 142.504 168.414C142.457 168.18 142.445 167.945 142.469 167.711C142.469 167.582 142.48 167.453 142.504 167.324C142.539 167.195 142.562 167.066 142.574 166.938C142.586 166.738 142.562 166.545 142.504 166.357C142.457 166.17 142.439 165.977 142.451 165.777C142.463 165.684 142.48 165.596 142.504 165.514C142.539 165.42 142.586 165.338 142.645 165.268C142.586 165.127 142.568 164.992 142.592 164.863C142.604 164.664 142.627 164.477 142.662 164.301C142.697 164.125 142.721 163.949 142.732 163.773C142.732 163.68 142.727 163.592 142.715 163.51C142.703 163.416 142.686 163.328 142.662 163.246L142.504 163.193C142.434 163.193 142.363 163.211 142.293 163.246C142.234 163.281 142.182 163.322 142.135 163.369C142.088 163.416 142.047 163.457 142.012 163.492C141.977 163.516 141.941 163.527 141.906 163.527C141.883 163.527 141.854 163.527 141.818 163.527C141.795 163.516 141.771 163.51 141.748 163.51C141.725 163.51 141.678 163.533 141.607 163.58C141.549 163.627 141.473 163.68 141.379 163.738C141.297 163.785 141.215 163.838 141.133 163.896C141.051 163.943 140.986 163.973 140.939 163.984C140.811 163.961 140.705 163.92 140.623 163.861C140.553 163.791 140.482 163.727 140.412 163.668C140.354 163.598 140.289 163.539 140.219 163.492C140.148 163.434 140.061 163.41 139.955 163.422C139.92 163.352 139.902 163.275 139.902 163.193C139.891 163.111 139.891 163.029 139.902 162.947V162.666C139.984 162.514 140.096 162.391 140.236 162.297C140.365 162.191 140.506 162.104 140.658 162.033L141.115 161.822C141.268 161.752 141.408 161.664 141.537 161.559H141.695C141.906 161.57 142.088 161.529 142.24 161.436C142.404 161.342 142.557 161.236 142.697 161.119C142.838 160.99 142.979 160.861 143.119 160.732C143.271 160.604 143.436 160.504 143.611 160.434C143.74 160.492 143.875 160.545 144.016 160.592C144.156 160.627 144.303 160.65 144.455 160.662C144.607 160.662 144.766 160.639 144.93 160.592C145.094 160.545 145.223 160.457 145.316 160.328C145.375 160.352 145.422 160.369 145.457 160.381C145.504 160.381 145.557 160.381 145.615 160.381C145.791 160.393 145.967 160.369 146.143 160.311C146.318 160.24 146.488 160.158 146.652 160.064C146.887 160.076 147.115 160.064 147.338 160.029C147.572 159.982 147.801 159.936 148.023 159.889C148.258 159.842 148.486 159.801 148.709 159.766C148.943 159.719 149.178 159.701 149.412 159.713C149.799 159.725 150.18 159.689 150.555 159.607C150.93 159.525 151.311 159.496 151.697 159.52C151.967 159.531 152.23 159.555 152.488 159.59C152.758 159.613 153.027 159.619 153.297 159.607C153.449 159.678 153.584 159.742 153.701 159.801C153.83 159.848 153.988 159.859 154.176 159.836C154.551 160.152 154.891 160.521 155.195 160.943V161.242C155.184 161.512 155.137 161.775 155.055 162.033C154.973 162.291 154.873 162.549 154.756 162.807C154.65 163.053 154.533 163.299 154.404 163.545C154.275 163.779 154.152 164.014 154.035 164.248C153.273 164.939 152.512 165.625 151.75 166.305C150.988 166.984 150.203 167.641 149.395 168.273C149.371 168.391 149.336 168.496 149.289 168.59C149.254 168.684 149.23 168.783 149.219 168.889C149.219 168.947 149.225 168.994 149.236 169.029C149.318 169.053 149.389 169.1 149.447 169.17C149.518 169.229 149.541 169.311 149.518 169.416H149.676C149.734 169.416 149.764 169.439 149.764 169.486L150.045 169.504C150.49 169.527 150.936 169.516 151.381 169.469C151.826 169.422 152.271 169.369 152.717 169.311C153.174 169.252 153.625 169.199 154.07 169.152C154.516 169.094 154.961 169.059 155.406 169.047C155.512 169.012 155.623 168.982 155.74 168.959C155.857 168.936 155.963 168.889 156.057 168.818H156.109C156.191 168.818 156.25 168.842 156.285 168.889C156.332 168.936 156.396 168.965 156.479 168.977C156.537 168.977 156.596 168.965 156.654 168.941C156.725 168.918 156.795 168.9 156.865 168.889C157.029 168.842 157.199 168.812 157.375 168.801C157.562 168.789 157.744 168.771 157.92 168.748C158.6 168.689 159.273 168.654 159.941 168.643C160.609 168.619 161.277 168.531 161.945 168.379C162.004 168.461 162.086 168.52 162.191 168.555C162.297 168.578 162.408 168.607 162.525 168.643C162.643 168.666 162.748 168.695 162.842 168.73C162.947 168.766 163.018 168.836 163.053 168.941Z" fill="white"/>
<ellipse cx="163.5" cy="153" rx="9.5" ry="10" fill="#F3FF6D"/>
</svg>
